<?xml version="1.0" encoding="utf-8"?>
<!-- Generator: Adobe Illustrator 24.1.0, SVG Export Plug-In . SVG Version: 6.00 Build 0)  -->
<svg version="1.1" id="Layer_1" xmlns="http://www.w3.org/2000/svg" xmlns:xlink="http://www.w3.org/1999/xlink" x="0px" y="0px"
	 viewBox="0 0 120 100" style="enable-background:new 0 0 120 100;" xml:space="preserve">
<style type="text/css">
	.st0{fill:#FFFFFF;}
</style>
<g>
	<path d="M60,23.62c-0.05,0-0.14,0-0.27-0.08c-5.33-3.18-10.78-8.1-11.89-13.82c-0.38-2.16,0.43-2.56,1.79-3.05
		C52.07,5.78,57.67,4.05,60,4.05s7.93,1.73,10.37,2.62c1.35,0.49,2.17,0.89,1.79,3.05c-1.11,5.72-6.55,10.63-11.89,13.82
		C60.14,23.62,60.05,23.62,60,23.62z"/>
	<g>
		<g>
			<path class="st0" d="M67.91,22.57c4.28-0.7,7.5-1.38,13.59-2.83c0.22-0.05,0.22-0.11-0.03-0.13c-2.68-0.16-4.96-0.32-6.55-0.46
				c-0.38-0.03-0.41-0.16-0.24-0.38c0.43-0.54,0.89-0.65,2.03-0.65c1.06,0,3.71,0.03,6.39,0.05c5.31,0.03,10.53-1.32,17.06-3.48
				c0.08-0.03,0.05-0.08-0.03-0.08c-9.13,0.22-20.2,0.32-21.99,0.32c-0.27,0-0.24-0.19-0.05-0.4c0.41-0.49,0.87-0.73,2.38-0.84
				c2.11-0.16,20.12-1.03,23.07-1.13c3.49-0.13,5.63-0.67,8.5-2.86c0.84-0.62,1.95-1.57,2.95-2.56c0.16-0.16,0.16-0.27-0.14-0.24
				c-5.47,0.49-33.33,3.08-34.63,3.24c-2.38,0.3-3.47,0.94-4.36,2.35c-2.95,4.59-4.25,6.83-8.1,9.88
				C67.61,22.49,67.61,22.62,67.91,22.57z M60,23.62c-0.05,0-0.14,0-0.27-0.08c-5.33-3.18-10.78-8.1-11.89-13.82
				c-0.38-2.16,0.43-2.56,1.79-3.05C52.07,5.78,57.67,4.05,60,4.05s7.93,1.73,10.37,2.62c1.35,0.49,2.17,0.89,1.79,3.05
				c-1.11,5.72-6.55,10.63-11.89,13.82C60.14,23.62,60.05,23.62,60,23.62z M52.09,22.57c0.3,0.05,0.3-0.08,0.14-0.22
				c-3.85-3.05-5.14-5.29-8.1-9.88c-0.89-1.4-1.98-2.05-4.36-2.35c-1.3-0.16-29.16-2.75-34.63-3.24C4.84,6.86,4.84,6.97,5,7.13
				c1,1,2.11,1.94,2.95,2.56c2.87,2.19,5.01,2.73,8.5,2.86c2.95,0.11,20.96,0.97,23.07,1.13c1.52,0.11,1.98,0.35,2.38,0.84
				c0.19,0.22,0.22,0.4-0.05,0.4c-1.79,0-12.86-0.11-21.99-0.32c-0.08,0-0.11,0.05-0.03,0.08c6.53,2.16,11.75,3.51,17.06,3.48
				c2.68-0.03,5.33-0.05,6.39-0.05c1.14,0,1.6,0.11,2.03,0.65c0.16,0.22,0.14,0.35-0.24,0.38c-1.6,0.13-3.87,0.3-6.55,0.46
				c-0.24,0.03-0.24,0.08-0.03,0.13C44.59,21.19,47.81,21.87,52.09,22.57z M60,25.32c0.08,0,0.22-0.03,0.32-0.08
				c6.55-3.27,9.61-6.26,13.46-12.47c1.44-2.38,2.25-3.59,5.74-4.1c5.47-0.78,30.17-2.51,35.04-3.18c2.09-0.3,2.65-0.62,3.63-1.65
				c0.16-0.16,0.16-0.3-0.14-0.27c-0.62,0.05-25.26,1.11-40.05,1.65c-3.63,0.19-4.71,0.11-7.74-0.89C65.77,2.94,61.71,2,60,2
				s-5.77,0.94-10.26,2.32c-3.03,1-4.12,1.08-7.74,0.89C27.21,4.67,2.57,3.62,1.94,3.57c-0.3-0.03-0.3,0.11-0.14,0.27
				c0.97,1.03,1.54,1.35,3.63,1.65c4.87,0.67,29.57,2.4,35.04,3.18c3.49,0.51,4.31,1.73,5.74,4.1c3.85,6.21,6.9,9.2,13.46,12.47
				C59.78,25.29,59.92,25.32,60,25.32z"/>
			<path class="st0" d="M68.68,10.27c-0.38-0.2-0.78-0.31-0.78-0.66c0-0.17,0.16-0.31,0.49-0.31c0.33,0,0.64,0.12,0.92,0.24
				l0.09-0.46c-0.26-0.09-0.59-0.16-0.95-0.16c-0.79,0-1.23,0.35-1.23,0.84c0,0.47,0.34,0.73,0.82,0.95
				c0.41,0.19,0.76,0.32,0.76,0.62c0,0.23-0.18,0.38-0.53,0.38c-0.33,0-0.68-0.12-0.95-0.24L67.25,12c0.13,0.04,0.64,0.13,1.02,0.13
				c0.64,0,1.21-0.31,1.21-0.87C69.48,10.72,69.08,10.48,68.68,10.27z M56.03,9.38l-0.11-0.39h-2.19l-0.07,0.18l0.14,0.07
				c0.09,0.04,0.11,0.1,0.11,0.21v2.62h2.12v-0.4h-1.44v-1h1.24v-0.38h-1.24v-0.9H56.03z M64.27,10.27
				c-0.38-0.2-0.78-0.31-0.78-0.66c0-0.17,0.16-0.31,0.49-0.31c0.33,0,0.64,0.12,0.92,0.24l0.09-0.46
				c-0.26-0.09-0.59-0.16-0.95-0.16c-0.79,0-1.2,0.35-1.2,0.84c0,0.47,0.32,0.73,0.79,0.95c0.41,0.19,0.76,0.32,0.76,0.62
				c0,0.23-0.18,0.38-0.53,0.38c-0.33,0-0.68-0.12-0.95-0.24L62.84,12c0.13,0.04,0.64,0.13,1.02,0.13c0.64,0,1.21-0.31,1.21-0.87
				C65.07,10.72,64.67,10.48,64.27,10.27z M65.54,9.17l0.14,0.07c0.1,0.05,0.12,0.1,0.12,0.21v2.62h0.68V8.99h-0.86L65.54,9.17z
				 M62.34,9.38l-0.11-0.39h-2.19l-0.07,0.18l0.14,0.07c0.09,0.04,0.11,0.1,0.11,0.21v2.62h2.12v-0.4H60.9v-1h1.24v-0.38H60.9v-0.9
				H62.34z M58.88,11.07l-1.65-2.09h-0.1h-0.55l-0.08,0.18l0.14,0.07c0.1,0.05,0.12,0.1,0.12,0.2v2.62h0.49v-1.99l1.58,1.99h0.54
				V8.99h-0.49V11.07z M52.09,10.6l0.3,0.13c0.09,0.04,0.12,0.08,0.12,0.18v0.69c-0.13,0.07-0.3,0.13-0.49,0.12
				C51.43,11.69,51,11.22,51,10.53c0-0.71,0.39-1.22,1.05-1.22c0.16,0,0.53,0.04,0.91,0.35l0.14-0.5c-0.45-0.19-0.72-0.24-1.06-0.25
				c-0.95-0.02-1.75,0.51-1.75,1.64c0,1.01,0.71,1.58,1.64,1.58c0.69,0,1.1-0.23,1.2-0.31v-1.39h-0.97L52.09,10.6z"/>
		</g>
		<g>
			<path class="st0" d="M35.88,36.73c0-2.33,1.7-4.14,4.05-4.14c1.6,0,2.78,0.75,3.48,1.93l-0.81,0.6c-0.54-0.92-1.42-1.5-2.67-1.5
				c-1.79,0-2.94,1.35-2.94,3.11c0,1.76,1.2,3.11,3.03,3.11c1.02,0,1.93-0.4,2.43-0.93v-1.57h-1.6v-0.98h2.68v3.02
				c-0.88,0.87-2.08,1.48-3.52,1.48C37.62,40.87,35.88,39.06,35.88,36.73z"/>
			<path class="st0" d="M45.84,32.74h4.17v0.96h-3.09v2.51h2.85v0.96h-2.85v2.58h3.09v0.96h-4.17V32.74z"/>
			<path class="st0" d="M53.45,35.04v5.69h-1.08v-7.99h0.27l5.47,5.69v-5.69h1.08v8.13h-0.27L53.45,35.04z"/>
			<path class="st0" d="M61.92,32.74h4.17v0.96H63v2.51h2.85v0.96H63v2.58h3.09v0.96h-4.17V32.74z"/>
			<path class="st0" d="M67.77,38.82l0.85-0.49c0.34,0.87,0.99,1.52,2.06,1.52c1,0,1.59-0.58,1.59-1.36c0-0.65-0.39-1.07-1.32-1.32
				l-0.81-0.21c-1.13-0.29-1.91-1.02-1.91-2.1c0-1.28,0.98-2.26,2.51-2.26c1.26,0,2.16,0.72,2.53,1.54l-0.81,0.54
				c-0.38-0.66-0.96-1.06-1.73-1.06c-0.85,0-1.39,0.48-1.39,1.17c0,0.55,0.39,0.94,1.05,1.12l0.79,0.21
				c1.37,0.36,2.21,1.09,2.21,2.33c0,1.39-1.12,2.42-2.71,2.42C69.03,40.87,68.16,39.84,67.77,38.82z"/>
			<path class="st0" d="M75.5,32.74h1.08v7.99H75.5V32.74z"/>
			<path class="st0" d="M78.52,38.82l0.85-0.49c0.34,0.87,0.99,1.52,2.06,1.52c1,0,1.59-0.58,1.59-1.36c0-0.65-0.39-1.07-1.32-1.32
				l-0.81-0.21c-1.13-0.29-1.91-1.02-1.91-2.1c0-1.28,0.98-2.26,2.51-2.26c1.26,0,2.16,0.72,2.53,1.54l-0.81,0.54
				c-0.38-0.66-0.96-1.06-1.73-1.06c-0.85,0-1.39,0.48-1.39,1.17c0,0.55,0.39,0.94,1.05,1.12l0.79,0.21
				c1.37,0.36,2.21,1.09,2.21,2.33c0,1.39-1.12,2.42-2.71,2.42C79.78,40.87,78.91,39.84,78.52,38.82z"/>
		</g>
	</g>
</g>
<g>
	<g>
		<path d="M67.91,72.57c4.28-0.7,7.5-1.38,13.59-2.83c0.22-0.05,0.22-0.11-0.03-0.13c-2.68-0.16-4.96-0.32-6.55-0.46
			c-0.38-0.03-0.41-0.16-0.24-0.38c0.43-0.54,0.89-0.65,2.03-0.65c1.06,0,3.71,0.03,6.39,0.05c5.31,0.03,10.53-1.32,17.06-3.48
			c0.08-0.03,0.05-0.08-0.03-0.08c-9.13,0.22-20.2,0.32-21.99,0.32c-0.27,0-0.24-0.19-0.05-0.4c0.41-0.49,0.87-0.73,2.38-0.84
			c2.11-0.16,20.12-1.03,23.07-1.13c3.49-0.13,5.63-0.67,8.5-2.86c0.84-0.62,1.95-1.57,2.95-2.56c0.16-0.16,0.16-0.27-0.14-0.24
			c-5.47,0.49-33.33,3.08-34.63,3.24c-2.38,0.3-3.47,0.94-4.36,2.35c-2.95,4.59-4.25,6.83-8.1,9.88
			C67.61,72.49,67.61,72.62,67.91,72.57z M60,73.62c-0.05,0-0.14,0-0.27-0.08c-5.33-3.18-10.78-8.1-11.89-13.82
			c-0.38-2.16,0.43-2.56,1.79-3.05c2.44-0.89,8.04-2.62,10.37-2.62s7.93,1.73,10.37,2.62c1.35,0.49,2.17,0.89,1.79,3.05
			c-1.11,5.72-6.55,10.63-11.89,13.82C60.14,73.62,60.05,73.62,60,73.62z M52.09,72.57c0.3,0.05,0.3-0.08,0.14-0.22
			c-3.85-3.05-5.14-5.29-8.1-9.88c-0.89-1.4-1.98-2.05-4.36-2.35c-1.3-0.16-29.16-2.75-34.63-3.24c-0.3-0.03-0.3,0.08-0.14,0.24
			c1,1,2.11,1.94,2.95,2.56c2.87,2.19,5.01,2.73,8.5,2.86c2.95,0.11,20.96,0.97,23.07,1.13c1.52,0.11,1.98,0.35,2.38,0.84
			c0.19,0.22,0.22,0.4-0.05,0.4c-1.79,0-12.86-0.11-21.99-0.32c-0.08,0-0.11,0.05-0.03,0.08c6.53,2.16,11.75,3.51,17.06,3.48
			c2.68-0.03,5.33-0.05,6.39-0.05c1.14,0,1.6,0.11,2.03,0.65c0.16,0.22,0.14,0.35-0.24,0.38c-1.6,0.13-3.87,0.3-6.55,0.46
			c-0.24,0.03-0.24,0.08-0.03,0.13C44.59,71.19,47.81,71.87,52.09,72.57z M60,75.32c0.08,0,0.22-0.03,0.32-0.08
			c6.55-3.27,9.61-6.26,13.46-12.47c1.44-2.38,2.25-3.59,5.74-4.1c5.47-0.78,30.17-2.51,35.04-3.18c2.09-0.3,2.65-0.62,3.63-1.65
			c0.16-0.16,0.16-0.3-0.14-0.27c-0.62,0.05-25.26,1.11-40.05,1.65c-3.63,0.19-4.71,0.11-7.74-0.89C65.77,52.94,61.71,52,60,52
			s-5.77,0.94-10.26,2.32c-3.03,1-4.12,1.08-7.74,0.89c-14.78-0.54-39.43-1.59-40.05-1.65c-0.3-0.03-0.3,0.11-0.14,0.27
			c0.97,1.03,1.54,1.35,3.63,1.65c4.87,0.67,29.57,2.4,35.04,3.18c3.49,0.51,4.31,1.73,5.74,4.1c3.85,6.21,6.9,9.2,13.46,12.47
			C59.78,75.29,59.92,75.32,60,75.32z"/>
		<path d="M68.68,60.27c-0.38-0.2-0.78-0.31-0.78-0.66c0-0.17,0.16-0.31,0.49-0.31c0.33,0,0.64,0.12,0.92,0.24l0.09-0.46
			c-0.26-0.09-0.59-0.16-0.95-0.16c-0.79,0-1.23,0.35-1.23,0.84c0,0.47,0.34,0.73,0.82,0.95c0.41,0.19,0.76,0.32,0.76,0.62
			c0,0.23-0.18,0.38-0.53,0.38c-0.33,0-0.68-0.12-0.95-0.24L67.25,62c0.13,0.04,0.64,0.13,1.02,0.13c0.64,0,1.21-0.31,1.21-0.87
			C69.48,60.72,69.08,60.48,68.68,60.27z M56.03,59.38l-0.11-0.39h-2.19l-0.07,0.18l0.14,0.07c0.09,0.04,0.11,0.1,0.11,0.21v2.62
			h2.12v-0.4h-1.44v-1h1.24v-0.38h-1.24v-0.9H56.03z M64.27,60.27c-0.38-0.2-0.78-0.31-0.78-0.66c0-0.17,0.16-0.31,0.49-0.31
			c0.33,0,0.64,0.12,0.92,0.24l0.09-0.46c-0.26-0.09-0.59-0.16-0.95-0.16c-0.79,0-1.2,0.35-1.2,0.84c0,0.47,0.32,0.73,0.79,0.95
			c0.41,0.19,0.76,0.32,0.76,0.62c0,0.23-0.18,0.38-0.53,0.38c-0.33,0-0.68-0.12-0.95-0.24L62.84,62c0.13,0.04,0.64,0.13,1.02,0.13
			c0.64,0,1.21-0.31,1.21-0.87C65.07,60.72,64.67,60.48,64.27,60.27z M65.54,59.17l0.14,0.07c0.1,0.05,0.12,0.1,0.12,0.21v2.62h0.68
			v-3.07h-0.86L65.54,59.17z M62.34,59.38l-0.11-0.39h-2.19l-0.07,0.18l0.14,0.07c0.09,0.04,0.11,0.1,0.11,0.21v2.62h2.12v-0.4H60.9
			v-1h1.24v-0.38H60.9v-0.9H62.34z M58.88,61.07l-1.65-2.09h-0.1h-0.55l-0.08,0.18l0.14,0.07c0.1,0.05,0.12,0.1,0.12,0.2v2.62h0.49
			v-1.99l1.58,1.99h0.54v-3.07h-0.49V61.07z M52.09,60.6l0.3,0.13c0.09,0.04,0.12,0.08,0.12,0.18v0.69
			c-0.13,0.07-0.3,0.13-0.49,0.12C51.43,61.69,51,61.22,51,60.53c0-0.71,0.39-1.22,1.05-1.22c0.16,0,0.53,0.04,0.91,0.35l0.14-0.5
			c-0.45-0.19-0.72-0.24-1.06-0.25c-0.95-0.02-1.75,0.51-1.75,1.64c0,1.01,0.71,1.58,1.64,1.58c0.69,0,1.1-0.23,1.2-0.31v-1.39
			h-0.97L52.09,60.6z"/>
	</g>
	<g>
		<path d="M35.88,86.73c0-2.33,1.7-4.14,4.05-4.14c1.6,0,2.78,0.75,3.48,1.93l-0.81,0.6c-0.54-0.92-1.42-1.5-2.67-1.5
			c-1.79,0-2.94,1.35-2.94,3.11c0,1.76,1.2,3.11,3.03,3.11c1.02,0,1.93-0.4,2.43-0.93v-1.57h-1.6v-0.98h2.68v3.02
			c-0.88,0.87-2.08,1.48-3.52,1.48C37.62,90.87,35.88,89.06,35.88,86.73z"/>
		<path d="M45.84,82.74h4.17v0.96h-3.09v2.51h2.85v0.96h-2.85v2.58h3.09v0.96h-4.17V82.74z"/>
		<path d="M53.45,85.04v5.69h-1.08v-7.99h0.27l5.47,5.69v-5.69h1.08v8.13h-0.27L53.45,85.04z"/>
		<path d="M61.92,82.74h4.17v0.96H63v2.51h2.85v0.96H63v2.58h3.09v0.96h-4.17V82.74z"/>
		<path d="M67.77,88.82l0.85-0.49c0.34,0.87,0.99,1.52,2.06,1.52c1,0,1.59-0.58,1.59-1.36c0-0.65-0.39-1.07-1.32-1.32l-0.81-0.21
			c-1.13-0.29-1.91-1.02-1.91-2.1c0-1.28,0.98-2.26,2.51-2.26c1.26,0,2.16,0.72,2.53,1.54l-0.81,0.54
			c-0.38-0.66-0.96-1.06-1.73-1.06c-0.85,0-1.39,0.48-1.39,1.17c0,0.55,0.39,0.94,1.05,1.12l0.79,0.21
			c1.37,0.36,2.21,1.09,2.21,2.33c0,1.39-1.12,2.42-2.71,2.42C69.03,90.87,68.16,89.84,67.77,88.82z"/>
		<path d="M75.5,82.74h1.08v7.99H75.5V82.74z"/>
		<path d="M78.52,88.82l0.85-0.49c0.34,0.87,0.99,1.52,2.06,1.52c1,0,1.59-0.58,1.59-1.36c0-0.65-0.39-1.07-1.32-1.32l-0.81-0.21
			c-1.13-0.29-1.91-1.02-1.91-2.1c0-1.28,0.98-2.26,2.51-2.26c1.26,0,2.16,0.72,2.53,1.54l-0.81,0.54
			c-0.38-0.66-0.96-1.06-1.73-1.06c-0.85,0-1.39,0.48-1.39,1.17c0,0.55,0.39,0.94,1.05,1.12l0.79,0.21
			c1.37,0.36,2.21,1.09,2.21,2.33c0,1.39-1.12,2.42-2.71,2.42C79.78,90.87,78.91,89.84,78.52,88.82z"/>
	</g>
</g>
</svg>
